<svg xmlns="http://www.w3.org/2000/svg" height="31" width="194" viewBox="0 0 600 96"><g fill-rule="evenodd" fill="none"><path fill="#DE1F26" d="M20.152 14.309c5.529.142 11.63-.292 16.77.236 3.446 3.725-1.477 8.46-7.085 7.537 2.282 3.888.628 9.868-1.654 12.244-6.463 6.715-20.181-.166-24.801 6.594-2.517-1.936-3.18-8.247-1.18-11.304 1.172 3.648 11.887 4.698 11.338-.235-.421-3.735-9.362-2.399-11.573-.706-.306-2.337-2.388-4.383-1.89-6.593.479-2.109 2.838-1.372 4.015-3.06-.514-1.324-2.5.43-2.836 0-.043-6.091 8.09-4.028 13.464-4.713 1.031 1.903 4.64 2.775 5.432 0M40.909 72.324c-1.244-16.347 14.53-18.774 15.767-32.92.924-10.474-7.38-19.176-16.241-21.552.142-1.644-.504-2.493-.943-3.554 17.412-.668 30.597 12.801 29.429 30.317-.463 6.945-4.047 15.628-9.418 19.182-5.668 3.752-12.572 5.236-18.594 8.527"/><path fill="#DE1F26" d="M39.094 73.556c-3.372 1.863-7.186 4.617-9.897 7.347-.689.689-2.439 3.762-3.065 3.791-.701.037-3.393-4.101-3.773-4.976-4.587-10.53 2.901-19.239 8.486-25.839 4.715-5.571 9.779-11.043 10.61-18.488.658-5.935-1.452-10.935-4.246-13.274.771-.735 1.675-2.577 2.356-2.609 7.552 2.376 13.407 7.491 14.848 15.408 3.151 17.277-19.189 20.668-15.319 38.64"/><path fill="#DE1F26" d="M35.451 22.839h.472c2.771 2.865 4.312 5.786 4.007 10.836-.896 14.761-18.932 21.457-20.267 36.752-.618 7.082 2.137 11.186 5.42 15.077-1.417 2.159-2.664 6.324-1.412 9.659-9.846-6.514-19.707-14.598-20.739-28.036-.898-11.602 6.24-17.379 12.49-21.908 7.739-5.617 18.944-8.77 16.967-21.438 1.186-.149 2.203-.469 3.062-.942M12.892 12.838c-.297-1.002.937-1.789 1.654-2.401.757-.649 1.759-1.561 2.838-1.922 1.974-.664 4.501-.228 6.621-.96 1.89-.653 2.899-2.743 4.965-4.084 4.434-2.867 11.976-2.166 17.265-1.2 5.961 1.084 9.892 3.191 13.717 6.244-7.845-4.44-22.443-2.462-27.433 4.081-6.29.335-13.013.236-19.627.242"/><path fill="#DE1F26" d="M36.178 12.738c-.27-.818 2.814-2.611 4.486-3.322 18.145-7.74 36.373 10.983 37.745 26.81 1.034 11.887-6.163 17.974-12.504 23.726 2.737-5.682 5.694-12.032 4.72-20.878-1.774-16.115-16.051-28.182-34.447-26.336"/><path fill="#676767" d="M112.59 37.113c-2.59 0-4.79-.268-6.6-.805a32.3 32.3 0 0 1-5.12-1.985v-5.965h.34a17.084 17.084 0 0 0 5.32 3.427c1.98.811 3.88 1.216 5.72 1.216 2.62 0 4.6-.55 5.94-1.648s2.01-2.546 2.01-4.342c0-1.427-.35-2.589-1.05-3.487s-1.82-1.564-3.35-1.997c-1.11-.32-2.11-.585-3.02-.794-.91-.208-2.05-.489-3.43-.841-1.23-.321-2.33-.73-3.3-1.227a9.236 9.236 0 0 1-2.59-1.948 8.21 8.21 0 0 1-1.71-2.778c-.41-1.067-.61-2.297-.61-3.693 0-2.902 1.12-5.335 3.37-7.3C106.77.983 109.64 0 113.14 0c1.99 0 3.88.2 5.66.601 1.78.401 3.43.97 4.95 1.708v5.7h-.36c-1.13-1.042-2.59-1.951-4.36-2.73a13.726 13.726 0 0 0-5.58-1.166c-2.21 0-3.99.517-5.34 1.552-1.36 1.034-2.04 2.393-2.04 4.076 0 1.524.4 2.735 1.2 3.632.8.899 1.95 1.556 3.47 1.973 1.01.273 2.24.581 3.69.926s2.66.661 3.62.95c2.46.754 4.25 1.892 5.39 3.415 1.13 1.524 1.7 3.4 1.7 5.629 0 1.395-.28 2.774-.85 4.137s-1.36 2.517-2.39 3.463a12.408 12.408 0 0 1-3.89 2.406c-1.44.56-3.25.841-5.42.841M129.42.476h5.24V5.18h-5.24V.476zm.32 9.215h4.6v26.947h-4.6V9.691zM162.25 36.638h-4.58V21.349a28.6 28.6 0 0 0-.19-3.45c-.12-1.066-.35-1.919-.69-2.56a3.511 3.511 0 0 0-1.56-1.503c-.67-.328-1.58-.493-2.73-.493-1.14 0-2.32.301-3.53.902s-2.39 1.382-3.54 2.343v20.05h-4.59V9.785h4.59v2.981c1.36-1.202 2.71-2.123 4.04-2.764a9.64 9.64 0 0 1 4.22-.962c2.69 0 4.78.87 6.29 2.609 1.52 1.739 2.27 4.259 2.27 7.56v17.429M169.86 41.193c.31.13.77.303 1.37.521s1.28.424 2.04.618c.85.21 1.63.379 2.34.509.72.129 1.5.194 2.34.194 1.42 0 2.62-.186 3.6-.557.98-.372 1.75-.889 2.3-1.551.52-.663.89-1.43 1.1-2.302s.32-1.865.32-2.98V33.27c-1.24 1.067-2.45 1.854-3.64 2.362-1.18.509-2.67.764-4.46.764-3.1 0-5.57-1.147-7.41-3.441-1.83-2.293-2.75-5.588-2.75-9.886 0-2.245.32-4.236.95-5.972s1.49-3.211 2.56-4.422a10.515 10.515 0 0 1 3.63-2.69c1.4-.63 2.85-.945 4.34-.945 1.41 0 2.64.166 3.67.497s2.07.804 3.11 1.417l.26-1.163h4.32V33.78c0 4.587-1.01 7.956-3.02 10.104-2.02 2.148-5.1 3.222-9.24 3.222-1.33 0-2.69-.105-4.08-.315a29.021 29.021 0 0 1-3.89-.847v-4.75h.24zm15.41-11.678V14.662c-1.14-.549-2.19-.941-3.16-1.175-.97-.235-1.93-.352-2.89-.352-2.32 0-4.15.848-5.48 2.544s-2 4.128-2 7.294c0 3.004.51 5.29 1.52 6.856 1.02 1.568 2.66 2.351 4.94 2.351 1.18 0 2.41-.234 3.67-.703a11.57 11.57 0 0 0 3.4-1.962zM211.04 33.945c-.37.275-.86.66-1.48 1.154s-1.22.887-1.8 1.178c-.8.421-1.57.745-2.32.972s-1.79.34-3.14.34a8.08 8.08 0 0 1-5.78-2.405c-.73-.745-1.3-1.665-1.74-2.758a9.382 9.382 0 0 1-.65-3.462c0-1.879.4-3.478 1.18-4.799.79-1.32 2.03-2.369 3.74-3.146 1.5-.697 3.29-1.179 5.34-1.446 2.06-.267 4.27-.466 6.65-.595v-.875c0-1.069-.16-1.932-.48-2.588s-.77-1.162-1.35-1.518c-.58-.373-1.29-.62-2.12-.741-.84-.122-1.69-.183-2.58-.183-1.04 0-2.27.159-3.68.474a24.36 24.36 0 0 0-4.24 1.373h-.27v-4.641c.84-.242 2.03-.51 3.59-.801 1.56-.292 3.1-.438 4.63-.438 1.84 0 3.4.146 4.67.438 1.27.29 2.41.818 3.42 1.579.98.745 1.71 1.709 2.19 2.891.48 1.183.72 2.624.72 4.325v18.563h-4.5v-2.891zm0-3.791v-7.532c-1.08.097-2.44.231-4.08.401-1.65.17-2.98.41-3.99.717-1.2.373-2.2.944-2.99 1.713-.78.769-1.18 1.843-1.18 3.219 0 1.555.44 2.73 1.3 3.523.87.794 2.14 1.191 3.81 1.191 1.43 0 2.72-.312 3.88-.935a16.94 16.94 0 0 0 3.25-2.297zM245.04 22.534c0 4.481-1.08 8.052-3.25 10.711-2.17 2.658-4.91 3.987-8.23 3.987-1.35 0-2.54-.153-3.58-.458s-2.1-.778-3.19-1.421V46.63h-4.59V9.787h4.59v2.819a16.683 16.683 0 0 1 3.79-2.542c1.39-.682 2.9-1.024 4.54-1.024 3.12 0 5.56 1.221 7.3 3.663 1.75 2.442 2.62 5.719 2.62 9.831zm-4.73.506c0-3.068-.49-5.45-1.48-7.144-.99-1.695-2.6-2.543-4.83-2.543-1.3 0-2.55.286-3.76.856s-2.36 1.305-3.45 2.204v15.253c1.2.578 2.23.972 3.08 1.181s1.83.313 2.94.313c2.37 0 4.21-.859 5.53-2.579 1.32-1.718 1.97-4.232 1.97-7.541zM271.69 23.327c0 4.552-1.1 8.068-3.31 10.545-2.2 2.479-5.14 3.717-8.8 3.717-3.78 0-6.75-1.279-8.91-3.838-2.17-2.558-3.25-6.033-3.25-10.424 0-4.52 1.12-8.031 3.35-10.533 2.22-2.502 5.16-3.754 8.81-3.754 3.66 0 6.6 1.247 8.8 3.741 2.21 2.494 3.31 6.01 3.31 10.546zm-4.72 0c0-3.503-.64-6.106-1.92-7.809s-3.1-2.555-5.47-2.555c-2.38 0-4.22.852-5.51 2.555s-1.93 4.306-1.93 7.809c0 3.39.64 5.961 1.93 7.712 1.29 1.752 3.13 2.627 5.51 2.627 2.35 0 4.17-.859 5.46-2.578 1.29-1.72 1.93-4.307 1.93-7.761zM290.72 14.421h-.24c-.34-.097-.7-.158-1.07-.182-.38-.024-.83-.037-1.36-.037-1.23 0-2.44.268-3.65.802-1.2.534-2.34 1.327-3.42 2.379v19.255h-4.53V9.516h4.53v4.031c1.66-1.473 3.1-2.513 4.33-3.12s2.42-.91 3.58-.91c.47 0 .81.011 1.05.036.23.024.49.06.78.109v4.759M305.73 37.589c-4.3 0-7.64-1.219-10.02-3.659-2.37-2.44-3.56-5.906-3.56-10.396 0-4.426 1.15-7.948 3.45-10.567 2.31-2.617 5.32-3.927 9.04-3.927 1.67 0 3.16.243 4.45.73a8.92 8.92 0 0 1 3.38 2.286c.96 1.038 1.7 2.306 2.22 3.806.52 1.499.77 3.335.77 5.507v2.481h-18.7c0 3.161.79 5.577 2.37 7.247s3.76 2.504 6.55 2.504c1 0 1.98-.113 2.93-.34.96-.227 1.83-.519 2.6-.875.82-.373 1.52-.734 2.08-1.083.56-.348 1.03-.677 1.4-.985h.27v4.986c-.53.21-1.2.474-1.98.79-.79.316-1.5.563-2.13.742-.89.243-1.69.429-2.4.559-.72.129-1.63.194-2.72.194zm5.31-17.241c-.03-1.232-.17-2.294-.43-3.186-.26-.891-.63-1.645-1.11-2.261a5.166 5.166 0 0 0-2.05-1.556c-.82-.357-1.85-.535-3.08-.535-1.2 0-2.23.182-3.08.547-.84.365-1.61.895-2.3 1.592-.68.714-1.2 1.505-1.55 2.372s-.58 1.876-.68 3.027h14.28zM110.39 77.557h-9.99v-2.623h3.28V54.487h-3.28v-2.623h9.99v2.623h-3.29v20.447h3.29v2.623M129.42 78.033h-3.26V66.962c0-.893-.04-1.726-.13-2.498-.09-.771-.25-1.389-.49-1.854-.27-.488-.64-.85-1.11-1.088-.48-.238-1.12-.356-1.95-.356-.8 0-1.64.217-2.5.652s-1.7 1.001-2.52 1.697v14.518h-3.26V58.589h3.26v2.159c.97-.871 1.93-1.538 2.87-2.003a6.75 6.75 0 0 1 3-.696c1.91 0 3.4.63 4.48 1.889 1.07 1.259 1.61 3.084 1.61 5.475v12.62M140.1 78.033c-1.77 0-3.15-.503-4.14-1.511-1-1.007-1.49-2.599-1.49-4.776V61.055h-2.19V58.36h2.19v-5.545h3.25v5.545h5.98v2.695h-5.98v9.171c0 .979.02 1.734.05 2.263.03.53.17 1.025.4 1.486.19.403.51.705.95.906.43.202 1.03.303 1.78.303.53 0 1.04-.078 1.53-.234.5-.155.86-.285 1.08-.388h.19v2.919c-.62.172-1.23.308-1.86.406s-1.21.146-1.74.146M154.35 78.509c-3.08 0-5.46-.874-7.16-2.623-1.69-1.748-2.54-4.232-2.54-7.45 0-3.172.82-5.696 2.46-7.572 1.65-1.876 3.8-2.815 6.46-2.815 1.2 0 2.25.174 3.17.523.92.348 1.73.895 2.42 1.638.69.744 1.22 1.653 1.59 2.728s.55 2.39.55 3.947v1.778h-13.36c0 2.265.57 3.996 1.69 5.193 1.13 1.197 2.69 1.795 4.68 1.795.71 0 1.41-.081 2.1-.244.68-.163 1.3-.372 1.85-.627.59-.267 1.08-.526 1.49-.776.4-.25.73-.485 1-.706h.19v3.573c-.38.151-.85.34-1.42.566-.56.227-1.07.404-1.52.532-.63.174-1.2.308-1.71.4-.51.093-1.16.14-1.94.14zm3.79-12.356c-.02-.883-.12-1.644-.31-2.283a4.744 4.744 0 0 0-.79-1.621c-.38-.488-.87-.859-1.46-1.115s-1.33-.383-2.2-.383c-.86 0-1.6.13-2.2.392a5.24 5.24 0 0 0-1.65 1.141 5.459 5.459 0 0 0-1.1 1.699c-.26.622-.42 1.345-.49 2.17h10.2zM165.7 80.958c.22.092.54.216.97.371.42.156.91.302 1.45.44.6.15 1.15.271 1.65.363.51.092 1.06.138 1.66.138 1 0 1.85-.132 2.55-.397.69-.265 1.24-.633 1.63-1.105.37-.472.63-1.018.78-1.64.15-.621.22-1.329.22-2.123v-1.692c-.87.759-1.73 1.321-2.57 1.683-.84.363-1.89.544-3.16.544-2.2 0-3.95-.817-5.25-2.451-1.3-1.635-1.95-3.983-1.95-7.044 0-1.6.22-3.018.67-4.256.45-1.236 1.06-2.287 1.82-3.15.72-.829 1.58-1.467 2.57-1.916s2.01-.674 3.07-.674c1 0 1.87.119 2.6.354.73.237 1.46.573 2.2 1.01l.19-.828h3.06v17.09c0 3.269-.72 5.669-2.14 7.199-1.43 1.531-3.61 2.296-6.55 2.296-.94 0-1.91-.074-2.89-.224s-1.9-.351-2.75-.604v-3.384h.17zm10.91-8.321V62.054c-.8-.391-1.55-.67-2.23-.837a8.669 8.669 0 0 0-2.05-.25c-1.65 0-2.94.604-3.89 1.812-.94 1.209-1.41 2.941-1.41 5.197 0 2.141.36 3.769 1.08 4.885.72 1.117 1.88 1.675 3.49 1.675.84 0 1.71-.167 2.6-.501.89-.333 1.7-.799 2.41-1.398zM195.08 62.053h-.17c-.25-.07-.51-.114-.79-.131s-.61-.027-1-.027c-.9 0-1.79.193-2.67.577s-1.72.955-2.51 1.712v13.849h-3.32V58.525h3.32v2.899c1.21-1.059 2.27-1.808 3.17-2.244.91-.437 1.78-.655 2.63-.655.34 0 .6.009.77.026.17.018.36.044.57.079v3.423M197.46 51.864h3.81v3.404h-3.81v-3.404zm.23 6.669h3.35v19.5h-3.35v-19.5zM211.47 78.033c-1.77 0-3.15-.503-4.14-1.511-.99-1.007-1.49-2.599-1.49-4.776V61.055h-2.19V58.36h2.19v-5.545h3.25v5.545h5.98v2.695h-5.98v9.171c0 .979.02 1.734.05 2.263.04.53.17 1.025.4 1.486.19.403.51.705.95.906.44.202 1.03.303 1.78.303.53 0 1.04-.078 1.54-.234.49-.155.85-.285 1.07-.388h.19v2.919c-.61.172-1.23.308-1.86.406s-1.21.146-1.74.146M234.58 58.525l-10.5 26.645h-3.51l3.49-8.12-7.09-18.525h3.55l5.32 14.412 5.31-14.412h3.43M290.66 78.033c-1.88 0-3.48-.193-4.79-.578a23.589 23.589 0 0 1-3.71-1.425v-4.283h.24c1.14 1.06 2.42 1.88 3.86 2.461 1.43.581 2.82.872 4.15.872 1.9 0 3.34-.394 4.31-1.183.98-.788 1.46-1.827 1.46-3.116 0-1.025-.25-1.86-.76-2.505-.51-.644-1.32-1.122-2.44-1.433-.8-.23-1.52-.42-2.19-.57-.66-.149-1.48-.35-2.48-.604-.89-.23-1.69-.524-2.4-.881a6.797 6.797 0 0 1-1.88-1.398 6.156 6.156 0 0 1-1.24-1.995c-.29-.766-.44-1.649-.44-2.651 0-2.083.82-3.83 2.45-5.24 1.63-1.411 3.72-2.116 6.26-2.116 1.44 0 2.81.144 4.11.432 1.29.288 2.48.696 3.58 1.226v4.093h-.26c-.82-.749-1.87-1.402-3.16-1.961a10.096 10.096 0 0 0-4.05-.837c-1.6 0-2.89.371-3.87 1.114-.99.742-1.48 1.718-1.48 2.927 0 1.094.29 1.963.87 2.607.58.645 1.42 1.117 2.52 1.416.73.196 1.62.418 2.67.665 1.06.248 1.93.475 2.63.682 1.78.541 3.09 1.359 3.91 2.452.82 1.094 1.23 2.441 1.23 4.041 0 1.001-.2 1.992-.62 2.97-.41.979-.98 1.808-1.72 2.487a9.147 9.147 0 0 1-2.83 1.727c-1.05.402-2.36.604-3.93.604M311.36 78.509c-3.07 0-5.45-.874-7.15-2.623-1.7-1.748-2.54-4.232-2.54-7.45 0-3.172.82-5.696 2.46-7.572 1.65-1.876 3.8-2.815 6.46-2.815 1.19 0 2.25.174 3.17.523.92.348 1.73.895 2.42 1.638.69.744 1.22 1.653 1.59 2.728.36 1.075.55 2.39.55 3.947v1.778h-13.36c0 2.265.56 3.996 1.69 5.193s2.69 1.795 4.68 1.795c.71 0 1.41-.081 2.1-.244.68-.163 1.3-.372 1.85-.627.59-.267 1.08-.526 1.49-.776.4-.25.73-.485 1-.706h.19v3.573c-.38.151-.86.34-1.42.566-.56.227-1.07.404-1.52.532-.63.174-1.2.308-1.71.4-.52.093-1.16.14-1.95.14zm3.8-12.356c-.02-.883-.13-1.644-.31-2.283s-.45-1.179-.79-1.621c-.38-.488-.87-.859-1.46-1.115s-1.33-.383-2.2-.383-1.6.13-2.2.392a5.13 5.13 0 0 0-1.65 1.141 5.676 5.676 0 0 0-1.11 1.699c-.25.622-.41 1.345-.48 2.17h10.2zM332.12 62.053h-.18c-.25-.07-.51-.114-.79-.131-.27-.017-.61-.027-1-.027-.89 0-1.78.193-2.67.577-.88.384-1.72.955-2.51 1.712v13.849h-3.32V58.525h3.32v2.899c1.22-1.059 2.28-1.808 3.18-2.244.9-.437 1.77-.655 2.62-.655.35 0 .6.009.77.026.17.018.37.044.58.079v3.423M351.63 58.525l-7.36 19.508h-2.95l-7.3-19.508h3.55l5.34 15.055 5.29-15.055h3.43M354 51.864h3.81v3.404H354v-3.404zm.24 6.669h3.34v19.5h-3.34v-19.5zM370.17 78.509c-1.33 0-2.55-.207-3.65-.622a7.45 7.45 0 0 1-2.86-1.883c-.8-.841-1.42-1.901-1.86-3.179-.44-1.279-.66-2.782-.66-4.511 0-1.717.23-3.2.69-4.449.45-1.25 1.06-2.301 1.83-3.153.76-.853 1.71-1.51 2.85-1.971 1.13-.461 2.36-.692 3.66-.692 1.07 0 2.09.152 3.08.455.99.304 1.87.654 2.64 1.052v3.695h-.19c-.23-.198-.53-.426-.89-.682-.37-.258-.81-.52-1.33-.789-.45-.233-.98-.438-1.59-.613s-1.2-.263-1.77-.263c-1.69 0-3.04.646-4.06 1.936-1.03 1.291-1.54 3.115-1.54 5.474 0 2.312.5 4.114 1.48 5.404.99 1.29 2.36 1.936 4.12 1.936 1.06 0 2.07-.222 3.03-.666s1.81-1.016 2.55-1.717h.19v3.697c-.32.151-.73.336-1.21.551a9.25 9.25 0 0 1-1.32.482c-.55.163-1.05.289-1.49.377-.44.087-1 .131-1.7.131M387.02 78.509c-3.07 0-5.46-.874-7.15-2.623-1.7-1.748-2.55-4.232-2.55-7.45 0-3.172.82-5.696 2.47-7.572 1.64-1.876 3.79-2.815 6.45-2.815 1.2 0 2.26.174 3.18.523.92.348 1.72.895 2.41 1.638.69.744 1.22 1.653 1.59 2.728s.55 2.39.55 3.947v1.778h-13.35c0 2.265.56 3.996 1.69 5.193 1.12 1.197 2.68 1.795 4.67 1.795.72 0 1.42-.081 2.1-.244a9.99 9.99 0 0 0 1.86-.627c.58-.267 1.08-.526 1.48-.776s.74-.485 1-.706h.19v3.573c-.38.151-.85.34-1.41.566-.57.227-1.07.404-1.52.532-.64.174-1.21.308-1.72.4-.51.093-1.16.14-1.94.14zm3.79-12.356c-.02-.883-.12-1.644-.31-2.283-.18-.639-.44-1.179-.79-1.621-.38-.488-.87-.859-1.46-1.115s-1.32-.383-2.2-.383c-.86 0-1.59.13-2.2.392-.6.261-1.15.642-1.65 1.141a5.459 5.459 0 0 0-1.1 1.699 7.201 7.201 0 0 0-.48 2.17h10.19zM440.6 77.557V51.864h16.18v3.037h-12.74v7.04h11.87v3.037h-11.87v9.542h12.74v3.037H440.6M475.34 78.033h-3.98l-4.67-7.37-4.81 7.37h-3.67l6.68-9.675-6.61-9.833h3.98l4.63 7.3 4.76-7.3h3.69l-6.65 9.606 6.65 9.902M485.32 78.509c-1.33 0-2.55-.207-3.66-.622s-2.06-1.042-2.86-1.883-1.41-1.901-1.85-3.179c-.44-1.279-.66-2.782-.66-4.511 0-1.717.23-3.2.68-4.449.46-1.25 1.07-2.301 1.83-3.153.76-.853 1.71-1.51 2.85-1.971s2.36-.692 3.67-.692c1.06 0 2.09.152 3.08.455.98.304 1.86.654 2.64 1.052v3.695h-.19c-.23-.198-.53-.426-.89-.682-.37-.258-.81-.52-1.33-.789a8.502 8.502 0 0 0-1.6-.613 6.396 6.396 0 0 0-1.76-.263c-1.69 0-3.04.646-4.07 1.936-1.02 1.291-1.53 3.115-1.53 5.474 0 2.312.49 4.114 1.48 5.404s2.36 1.936 4.12 1.936c1.06 0 2.07-.222 3.03-.666s1.81-1.016 2.55-1.717h.19v3.697c-.32.151-.73.336-1.21.551a9.25 9.25 0 0 1-1.32.482c-.56.163-1.05.289-1.49.377-.44.087-1.01.131-1.7.131M502.64 78.509c-3.07 0-5.46-.874-7.15-2.623-1.7-1.748-2.55-4.232-2.55-7.45 0-3.172.82-5.696 2.47-7.572s3.8-2.815 6.45-2.815c1.2 0 2.26.174 3.18.523.92.348 1.73.895 2.42 1.638.69.744 1.21 1.653 1.58 2.728s.56 2.39.56 3.947v1.778h-13.36c0 2.265.56 3.996 1.69 5.193s2.69 1.795 4.68 1.795c.71 0 1.41-.081 2.09-.244a9.746 9.746 0 0 0 1.86-.627c.58-.267 1.08-.526 1.48-.776s.74-.485 1-.706h.19v3.573c-.38.151-.85.34-1.41.566-.57.227-1.07.404-1.52.532-.63.174-1.21.308-1.72.4-.51.093-1.16.14-1.94.14zm3.8-12.356c-.03-.883-.13-1.644-.31-2.283-.19-.639-.45-1.179-.8-1.621a3.598 3.598 0 0 0-1.46-1.115c-.59-.256-1.32-.383-2.2-.383-.86 0-1.59.13-2.2.392a5.2 5.2 0 0 0-1.64 1.141 5.317 5.317 0 0 0-1.11 1.699c-.25.622-.41 1.345-.48 2.17h10.2zM512.93 50.912h3.33v27.121h-3.33V50.912zM521.02 50.912h3.33v27.121h-3.33V50.912zM537.38 78.509c-3.08 0-5.46-.874-7.16-2.623-1.7-1.748-2.54-4.232-2.54-7.45 0-3.172.82-5.696 2.46-7.572 1.65-1.876 3.8-2.815 6.46-2.815 1.2 0 2.25.174 3.17.523.92.348 1.73.895 2.42 1.638.69.744 1.22 1.653 1.59 2.728s.55 2.39.55 3.947v1.778h-13.36c0 2.265.57 3.996 1.69 5.193 1.13 1.197 2.69 1.795 4.68 1.795.71 0 1.41-.081 2.1-.244.68-.163 1.3-.372 1.85-.627.59-.267 1.08-.526 1.49-.776.4-.25.73-.485 1-.706h.19v3.573c-.38.151-.85.34-1.42.566-.56.227-1.07.404-1.52.532-.63.174-1.2.308-1.71.4-.52.093-1.16.14-1.94.14zm3.79-12.356c-.02-.883-.13-1.644-.31-2.283s-.45-1.179-.79-1.621c-.38-.488-.87-.859-1.46-1.115s-1.33-.383-2.2-.383c-.86 0-1.6.13-2.2.392a5.24 5.24 0 0 0-1.65 1.141 5.459 5.459 0 0 0-1.1 1.699c-.26.622-.42 1.345-.49 2.17h10.2zM563.36 78.033h-3.26V66.962c0-.893-.04-1.726-.13-2.498-.08-.771-.25-1.389-.49-1.854-.27-.488-.64-.85-1.11-1.088-.48-.238-1.12-.356-1.94-.356-.81 0-1.65.217-2.51.652s-1.7 1.001-2.52 1.697v14.518h-3.26V58.589h3.26v2.159c.97-.871 1.93-1.538 2.88-2.003a6.688 6.688 0 0 1 3-.696c1.9 0 3.39.63 4.47 1.889 1.07 1.259 1.61 3.084 1.61 5.475v12.62M575.72 78.509c-1.33 0-2.54-.207-3.65-.622s-2.07-1.042-2.86-1.883c-.8-.841-1.42-1.901-1.86-3.179-.44-1.279-.66-2.782-.66-4.511 0-1.717.23-3.2.69-4.449.45-1.25 1.06-2.301 1.83-3.153.76-.853 1.71-1.51 2.85-1.971s2.36-.692 3.66-.692c1.07 0 2.09.152 3.08.455.99.304 1.87.654 2.64 1.052v3.695h-.19c-.23-.198-.53-.426-.89-.682-.36-.258-.81-.52-1.33-.789-.45-.233-.98-.438-1.59-.613s-1.2-.263-1.77-.263c-1.69 0-3.04.646-4.06 1.936-1.03 1.291-1.54 3.115-1.54 5.474 0 2.312.5 4.114 1.48 5.404.99 1.29 2.36 1.936 4.12 1.936 1.06 0 2.08-.222 3.03-.666a9.436 9.436 0 0 0 2.55-1.717h.19v3.697c-.32.151-.72.336-1.21.551a8.83 8.83 0 0 1-1.32.482c-.55.163-1.05.289-1.49.377-.44.087-1 .131-1.7.131M592.57 78.509c-3.07 0-5.46-.874-7.15-2.623-1.7-1.748-2.55-4.232-2.55-7.45 0-3.172.82-5.696 2.47-7.572 1.64-1.876 3.8-2.815 6.45-2.815 1.2 0 2.26.174 3.18.523.92.348 1.72.895 2.41 1.638.69.744 1.22 1.653 1.59 2.728s.55 2.39.55 3.947v1.778h-13.35c0 2.265.56 3.996 1.69 5.193s2.68 1.795 4.67 1.795c.72 0 1.42-.081 2.1-.244a9.99 9.99 0 0 0 1.86-.627c.58-.267 1.08-.526 1.48-.776s.74-.485 1-.706h.19v3.573c-.38.151-.85.34-1.41.566-.57.227-1.07.404-1.52.532-.63.174-1.21.308-1.72.4-.51.093-1.16.14-1.94.14zm3.8-12.356c-.03-.883-.13-1.644-.31-2.283-.19-.639-.45-1.179-.8-1.621a3.598 3.598 0 0 0-1.46-1.115c-.59-.256-1.32-.383-2.2-.383-.86 0-1.59.13-2.2.392-.6.261-1.15.642-1.65 1.141a5.459 5.459 0 0 0-1.1 1.699c-.25.622-.41 1.345-.48 2.17h10.2z"/><path fill="#DD1F26" d="M351.1 37.589c-2.54 0-4.86-.389-6.97-1.167-2.11-.779-3.92-1.963-5.43-3.553-1.51-1.606-2.67-3.592-3.47-5.961-.81-2.367-1.21-5.092-1.21-8.174 0-2.92.41-5.535 1.22-7.846s1.97-4.286 3.49-5.925c1.46-1.589 3.26-2.814 5.4-3.673C346.27.43 348.61 0 351.15 0c1.21 0 2.36.09 3.47.268 1.11.178 2.18.422 3.19.73.8.243 1.7.58 2.69 1.009.99.43 1.79.8 2.4 1.107V8.93h-.41c-.6-.535-1.21-1.042-1.85-1.52-.63-.479-1.53-.994-2.69-1.546-.96-.486-2.07-.891-3.33-1.216-1.25-.324-2.6-.487-4.05-.487-3.46 0-6.25 1.314-8.38 3.942-2.13 2.627-3.2 6.123-3.2 10.486 0 2.433.28 4.558.85 6.374.56 1.817 1.37 3.358 2.43 4.623a10.189 10.189 0 0 0 3.73 2.858c1.45.658 3.09.986 4.91.986 1.35 0 2.69-.098 4.03-.292 1.33-.195 2.46-.487 3.38-.876v-9.367h-8.3V18.66h13.03v15.814c-.62.276-1.43.625-2.45 1.046-1.03.422-1.98.754-2.86.998-1.18.357-2.24.624-3.19.803-.95.178-2.1.267-3.45.267M391.12 23.327c0 4.552-1.1 8.068-3.31 10.545-2.2 2.479-5.14 3.717-8.8 3.717-3.78 0-6.75-1.279-8.91-3.838-2.17-2.558-3.25-6.033-3.25-10.424 0-4.52 1.12-8.031 3.35-10.533 2.22-2.502 5.16-3.754 8.81-3.754 3.66 0 6.6 1.247 8.8 3.741 2.21 2.494 3.31 6.01 3.31 10.546zm-4.72 0c0-3.503-.64-6.106-1.92-7.809s-3.1-2.555-5.47-2.555c-2.38 0-4.22.852-5.51 2.555s-1.93 4.306-1.93 7.809c0 3.39.64 5.961 1.93 7.712 1.29 1.752 3.13 2.627 5.51 2.627 2.35 0 4.17-.859 5.46-2.578 1.29-1.72 1.93-4.307 1.93-7.761zM416.34 9.516L406.2 36.638h-4.07L392.07 9.516h4.89l7.36 20.93 7.3-20.93h4.72M431.34 37.589c-4.3 0-7.64-1.219-10.01-3.659-2.38-2.44-3.57-5.906-3.57-10.396 0-4.426 1.16-7.948 3.46-10.567 2.3-2.617 5.31-3.927 9.03-3.927 1.68 0 3.16.243 4.45.73s2.42 1.248 3.38 2.286c.97 1.038 1.71 2.306 2.23 3.806.51 1.499.77 3.335.77 5.507v2.481h-18.7c0 3.161.79 5.577 2.37 7.247 1.57 1.67 3.76 2.504 6.54 2.504 1 0 1.98-.113 2.94-.34s1.82-.519 2.6-.875c.82-.373 1.51-.734 2.07-1.083.57-.348 1.03-.677 1.41-.985h.26v4.986c-.53.21-1.19.474-1.98.79s-1.5.563-2.13.742c-.88.243-1.68.429-2.4.559-.72.129-1.62.194-2.72.194zm5.32-17.241c-.04-1.232-.18-2.294-.44-3.186-.26-.891-.63-1.645-1.11-2.261a5.065 5.065 0 0 0-2.04-1.556c-.83-.357-1.86-.535-3.08-.535-1.21 0-2.24.182-3.08.547a7.27 7.27 0 0 0-2.31 1.592 7.677 7.677 0 0 0-1.55 2.372c-.35.867-.57 1.876-.67 3.027h14.28zM459.64 14.421h-.25c-.33-.097-.69-.158-1.07-.182s-.83-.037-1.36-.037c-1.22 0-2.44.268-3.64.802-1.21.534-2.35 1.327-3.43 2.379v19.255h-4.53V9.516h4.53v4.031c1.66-1.473 3.1-2.513 4.33-3.12s2.43-.91 3.58-.91c.47 0 .82.011 1.05.036.23.024.5.06.79.109v4.759M484.85 36.638h-4.58V21.349c0-1.235-.06-2.384-.18-3.45-.13-1.066-.36-1.919-.7-2.56a3.511 3.511 0 0 0-1.56-1.503c-.67-.328-1.58-.493-2.73-.493-1.14 0-2.31.301-3.53.902-1.21.601-2.39 1.382-3.54 2.343v20.05h-4.59V9.785h4.59v2.981c1.36-1.202 2.71-2.123 4.04-2.764a9.64 9.64 0 0 1 4.22-.962c2.69 0 4.78.87 6.3 2.609 1.51 1.739 2.26 4.259 2.26 7.56v17.429M521.7 36.638v-15.53c0-1.234-.05-2.376-.14-3.425-.1-1.05-.3-1.872-.61-2.465-.32-.641-.78-1.113-1.38-1.418-.59-.304-1.4-.457-2.41-.457-.94 0-1.94.285-3.01.854-1.08.569-2.19 1.39-3.33 2.464.02.273.04.597.06.973.02.377.04.822.04 1.335v17.669h-4.55v-15.53c0-1.234-.05-2.376-.14-3.425-.1-1.05-.3-1.872-.61-2.465-.32-.641-.78-1.113-1.38-1.418-.59-.304-1.4-.457-2.42-.457-.98 0-2.01.305-3.09.914s-2.13 1.386-3.14 2.331v20.05h-4.55V9.785h4.55v2.981c1.19-1.185 2.37-2.103 3.54-2.752 1.17-.65 2.45-.974 3.86-.974 1.59 0 3.01.36 4.24 1.082 1.23.721 2.17 1.908 2.82 3.558 1.37-1.522 2.7-2.676 4.01-3.462a8.116 8.116 0 0 1 4.26-1.178c1.16 0 2.21.18 3.16.541.96.36 1.79.942 2.5 1.743.72.817 1.28 1.835 1.68 3.053.39 1.218.59 2.749.59 4.592v17.669h-4.55M544.11 37.589c-4.3 0-7.64-1.219-10.01-3.659-2.38-2.44-3.57-5.906-3.57-10.396 0-4.426 1.15-7.948 3.46-10.567 2.3-2.617 5.31-3.927 9.03-3.927 1.68 0 3.16.243 4.45.73s2.41 1.248 3.38 2.286 1.71 2.306 2.22 3.806c.52 1.499.78 3.335.78 5.507v2.481h-18.7c0 3.161.79 5.577 2.36 7.247 1.58 1.67 3.76 2.504 6.55 2.504 1 0 1.98-.113 2.94-.34a13.87 13.87 0 0 0 2.59-.875c.83-.373 1.52-.734 2.08-1.083.57-.348 1.03-.677 1.4-.985h.27v4.986c-.53.21-1.19.474-1.98.79s-1.5.563-2.13.742c-.88.243-1.69.429-2.4.559-.72.129-1.63.194-2.72.194zm5.32-17.241c-.04-1.232-.18-2.294-.44-3.186-.26-.891-.63-1.645-1.11-2.261a5.065 5.065 0 0 0-2.04-1.556c-.83-.357-1.86-.535-3.08-.535-1.21 0-2.24.182-3.08.547a7.27 7.27 0 0 0-2.31 1.592 7.677 7.677 0 0 0-1.55 2.372c-.35.867-.58 1.876-.67 3.027h14.28zM580.02 36.638h-4.59V21.349c0-1.235-.06-2.384-.18-3.45s-.36-1.919-.7-2.56a3.511 3.511 0 0 0-1.56-1.503c-.66-.328-1.57-.493-2.73-.493-1.14 0-2.31.301-3.52.902s-2.4 1.382-3.55 2.343v20.05h-4.59V9.785h4.59v2.981c1.36-1.202 2.71-2.123 4.05-2.764a9.608 9.608 0 0 1 4.22-.962c2.68 0 4.78.87 6.29 2.609 1.51 1.739 2.27 4.259 2.27 7.56v17.429M594.43 37.113c-2.51 0-4.47-.702-5.87-2.11-1.4-1.407-2.11-3.629-2.11-6.668V13.407h-3.1V9.645h3.1V1.903h4.61v7.742h8.46v3.762h-8.46v12.806c0 1.367.02 2.42.07 3.159.05.74.24 1.431.56 2.074.28.563.73.985 1.35 1.267.62.281 1.46.421 2.52.421.75 0 1.48-.108 2.18-.325s1.2-.398 1.51-.543h.27v4.076c-.86.241-1.74.43-2.63.566-.89.137-1.71.205-2.46.205"/><path fill="#676767" d="M258.84 67.328c0 1.708-1.38 3.092-3.09 3.092s-3.09-1.384-3.09-3.092c0-1.709 1.38-3.093 3.09-3.093s3.09 1.384 3.09 3.093M420.14 67.328c0 1.708-1.38 3.092-3.09 3.092s-3.09-1.384-3.09-3.092c0-1.709 1.38-3.093 3.09-3.093s3.09 1.384 3.09 3.093"/></g></svg>