<?xml version="1.0" encoding="UTF-8"?>
<svg width="200px" height="50px" version="1.1" viewBox="0 0 246 64" xmlns="http://www.w3.org/2000/svg">
	<title>Group 8</title>
	<desc>Created with Sketch.</desc>
	<g fill="none" fill-rule="evenodd">
		<g transform="translate(-1)">
			<g transform="translate(.9697 .73844)">
				<path d="m23.331 18.778 7.7394 7.7394-15.479 15.479-15.479-15.479 7.7394-7.7394c4.2744-4.2744 11.204-4.2744 15.479 0z" fill="#006BA6"/>
				<path d="m29.523 24.97 1.5479 1.5479-15.479 15.479-9.2873-9.2873c4.2744 4.2744 11.204 4.2744 15.479 0l7.7394-7.7394z" fill="#005894"/>
				<path d="m23.331 49.736-15.479-15.479c4.2744 4.2744 11.204 4.2744 15.479 0l30.958-30.958c4.2744-4.2744 11.204-4.2744 15.479 0l7.7394 7.7394-38.697 38.697c-4.2744 4.2744-11.204 4.2744-15.479 0z" fill="#0496FF"/>
			</g>
			<g transform="translate(65.029 31.727)">
				<path d="m16.745 1.6407v-1.0633h2.7427c1.5148 0 2.7427 1.228 2.7427 2.7427v17.178c0 6.2185-5.0411 11.26-11.26 11.26-4.3796 0-8.1751-2.5005-10.037-6.1516l4.9784-2.3215c0.98327 1.7812 2.88 2.9877 5.0585 2.9877 3.189 0 5.7741-2.5852 5.7741-5.7741v-0.19715c-1.6772 1.0401-3.6555 1.6407-5.7741 1.6407-6.059 0-10.971-4.9118-10.971-10.971 0-6.059 4.9118-10.971 10.971-10.971 2.1186 0 4.097 0.60054 5.7741 1.6407zm-5.7741 15.104c3.189 0 5.7741-2.5852 5.7741-5.7741 0-3.189-2.5852-5.7741-5.7741-5.7741-3.189 0-5.7741 2.5852-5.7741 5.7741 0 3.189 2.5852 5.7741 5.7741 5.7741z" fill="#fff"/>
				<path d="m70.914 1.8987c1.7582-1.1982 3.8827-1.8987 6.1708-1.8987v5.1967c-3.189 0-5.7741 2.5852-5.7741 5.7741v10.105h-5.4854v-20.498h2.7427c0.99436 0 1.8651 0.52916 2.3461 1.3212z" fill="#A0ACC7"/>
				<path d="m34.645 21.942c-6.059 0-10.971-4.9118-10.971-10.971 0-6.059 4.9118-10.971 10.971-10.971s10.971 4.9118 10.971 10.971c0 6.059-4.9118 10.971-10.971 10.971zm0-5.1967c3.189 0 5.7741-2.5852 5.7741-5.7741 0-3.189-2.5852-5.7741-5.7741-5.7741s-5.7741 2.5852-5.7741 5.7741c0 3.189 2.5852 5.7741 5.7741 5.7741z" fill="#fff"/>
				<path d="m98.449 12.991v5.487e-4h-15.804c0.8192 2.1922 2.9326 3.7532 5.4106 3.7532 1.8985 0 3.583-0.91624 4.6354-2.3306l4.7608 2.2227c-1.9213 3.1792-5.4106 5.3046-9.3962 5.3046-6.059 0-10.971-4.9118-10.971-10.971 0-6.059 4.9118-10.971 10.971-10.971s10.971 4.9118 10.971 10.971c0 0.69024-0.063744 1.3656-0.18567 2.0205l-0.39175-9.93e-5zm-4.9829-4.0413c-0.8192-2.1922-2.9326-3.7532-5.4106-3.7532s-4.5914 1.5609-5.4106 3.7532h10.821z" fill="#A0ACC7"/>
				<path d="m119.24 0.57741h2.7427c1.5148 0 2.7427 1.228 2.7427 2.7427v17.755h-5.4854v-20.498z" fill="#A0ACC7"/>
				<path d="m54.273 13.061 4.3346-12.484h5.7741l-7.2177 20.787h-5.7741l-7.2177-20.787h3.8568l4.312e-4 3.829e-4c1.1179 0.018503 2.0731 0.70582 2.4827 1.6792 0.0026554 0.0063089 0.0037026 0.011749 0.0032137 0.016351l0.0019277 0.0010835 3.7557 10.787z" fill="#fff"/>
				<path d="m107.68 13.061 4.3346-12.484h5.7741l-7.2177 20.787h-5.7741l-7.2177-20.787h3.8568l4.31e-4 3.829e-4c1.1179 0.018503 2.0731 0.70582 2.4827 1.6792 0.002655 0.0063089 0.003703 0.011749 0.003214 0.016351l0.001927 0.0010835 3.7557 10.787z" fill="#A0ACC7"/>
				<path d="m171.2 13.061 4.3346-12.484h5.7741l-7.2177 20.787h-5.7741l-4.3306-12.472-4.3306 12.472h-5.7741l-7.2177-20.787h3.8568l4.31e-4 3.829e-4c1.1179 0.018503 2.0731 0.70582 2.4827 1.6792 0.002655 0.0063089 0.003703 0.011749 0.003214 0.016351l0.001927 0.0010835 3.7557 10.787 4.3346-12.484h3.8568l4.32e-4 3.829e-4c1.1179 0.018503 2.0731 0.70582 2.4827 1.6792 0.002655 0.0063089 0.003702 0.011749 0.003213 0.016351l0.001928 0.0010835 3.7557 10.787z" fill="#A0ACC7"/>
				<path d="m147.53 12.991v5.487e-4h-15.804c0.8192 2.1922 2.9326 3.7532 5.4106 3.7532 1.8985 0 3.583-0.91624 4.6354-2.3306l4.7608 2.2227c-1.9213 3.1792-5.4106 5.3046-9.3962 5.3046-6.059 0-10.971-4.9118-10.971-10.971 0-6.059 4.9118-10.971 10.971-10.971s10.971 4.9118 10.971 10.971c0 0.69024-0.063744 1.3656-0.18567 2.0205l-0.39175-9.93e-5zm-4.9829-4.0413c-0.8192-2.1922-2.9326-3.7532-5.4106-3.7532s-4.5914 1.5609-5.4106 3.7532h10.821z" fill="#A0ACC7"/>
			</g>
		</g>
	</g>
</svg>
